# xmcd
#
# Track frame offsets: 
#        150
#        16475
#        32145
#        46782
#        60245
#        75662
#        94677
#        109632
#        127167
#        139345
#
# Disc length: 2027 seconds
#
# Revision: 0
# Processed by: cddbd v1.4PL0 Copyright (c) Steve Scherf et al.
# Submitted via: ExactAudioCopy v0.90a11
#
DISCID=7c07e90a
DTITLE=The Fabulous Jumpdaddies - fjd001
DYEAR=1900
DGENRE=
TTITLE0=The Rose
TTITLE1=C'mon Upstairs
TTITLE2=The Smokey Hole
TTITLE3=Macha
TTITLE4=Coffee'n Beans
TTITLE5=I.W.Y.T.B.M.B
TTITLE6=Venus Way
TTITLE7=Tell it like it is
TTITLE8=Another Day
TTITLE9=Sadie
EXTD=
EXTT0=
EXTT1=
EXTT2=
EXTT3=
EXTT4=
EXTT5=
EXTT6=
EXTT7=
EXTT8=
EXTT9=
PLAYORDER=
